<!DOCTYPE svg PUBLIC "-//W3C//DTD SVG 1.1//EN" "http://www.w3.org/Graphics/SVG/1.1/DTD/svg11.dtd">
<!-- Uploaded to: SVG Repo, www.svgrepo.com, Transformed by: SVG Repo Mixer Tools -->
<svg width="64px" height="64px" viewBox="-0.85 -0.85 10.17 10.17" id="svg8" version="1.1" xmlns="http://www.w3.org/2000/svg" xmlns:cc="http://creativecommons.org/ns#" xmlns:dc="http://purl.org/dc/elements/1.1/" xmlns:inkscape="http://www.inkscape.org/namespaces/inkscape" xmlns:rdf="http://www.w3.org/1999/02/22-rdf-syntax-ns#" xmlns:sodipodi="http://sodipodi.sourceforge.net/DTD/sodipodi-0.dtd" xmlns:svg="http://www.w3.org/2000/svg" fill="#000000">
<g id="SVGRepo_bgCarrier" stroke-width="0">
<path transform="translate(-0.85, -0.85), scale(0.3178125)" d="M16,27.06740822505794C17.521572682273778,26.45611404024942,18.397368785763206,24.629864781346093,20.008194963030775,24.323102602366866C22.40256205825997,23.8671246217665,25.456166543396176,26.63397961670916,27.20283730943479,24.933964634253194C28.821517888248454,23.358521059368922,25.81312579083051,20.551920585102174,26.173870916286894,18.32211964593022C26.502051478523146,16.293603460253145,29.456937910599024,15.031665387406505,29.133161539410153,13.002441580517937C28.817650796229607,11.02502145859808,26.32392106389973,10.231651924215061,24.69676493760554,9.064561392894042C23.371492062132766,8.113998997936001,22.011353349079485,7.2237783703142995,20.44466819846405,6.770551385224783C19.001606196125667,6.353087391032877,17.478858011155857,6.284695133697381,16,6.548670723250037C14.636798015268791,6.792001756306765,13.541629582987746,7.709829888149794,12.258980742286964,8.231693466369718C10.890864489451376,8.78833065378224,9.518910697073082,9.18141442936079,8.152257557322539,9.741634239161726C5.859961087274298,10.681294680502521,2.12464511884418,10.296842570974706,1.4240883715844035,12.673143287526633C0.7492438039846987,14.96222784180572,4.83838012912281,16.112918460099664,5.607966528477585,18.371913825519005C6.267699695471594,20.308452943027316,4.59198585015668,22.563208266475375,5.429316911892439,24.42983846507505C6.265493247475429,26.293894476705713,8.08655919917181,27.821668722275202,10.068796276649179,28.316271438967483C12.053999606585833,28.811614287373285,14.101421850230333,27.830164941105423,16,27.06740822505794" fill="#ffd15c" strokewidth="0"/>
</g>
<g id="SVGRepo_tracerCarrier" stroke-linecap="round" stroke-linejoin="round"/>
<g id="SVGRepo_iconCarrier"> <defs id="defs2"/> <g id="layer1" transform="translate(0,-288.53332)"> <path d="m 15.996094,0.99609375 c -6.0632836,0 -10.9980445,4.93673065 -10.9980471,11.00000025 -3.8e-6,10.668737 10.3789061,18.779297 10.3789061,18.779297 0.364612,0.290384 0.881482,0.290384 1.246094,0 0,0 10.380882,-8.11056 10.380859,-18.779297 C 27.003893,5.9328244 22.059377,0.99609375 15.996094,0.99609375 Z m 0,6.00195315 c 2.749573,0 5.00585,2.2484784 5.005859,4.9980471 C 21.001971,14.7457 18.745685,17 15.996094,17 c -2.749591,0 -4.998064,-2.2543 -4.998047,-5.003906 9e-6,-2.7495687 2.248474,-4.9980471 4.998047,-4.9980471 z" id="path929" style="color:#015d7f;font-style:normal;font-variant:normal;font-weight:normal;font-stretch:normal;font-size:medium;line-height:normal;font-family:sans-serif;font-variant-ligatures:normal;font-variant-position:normal;font-variant-caps:normal;font-variant-numeric:normal;font-variant-alternates:normal;font-feature-settings:normal;text-indent:0;text-align:start;text-decoration:none;text-decoration-line:none;text-decoration-style:solid;text-decoration-color:#015d7f;letter-spacing:normal;word-spacing:normal;text-transform:none;writing-mode:lr-tb;direction:ltr;text-orientation:mixed;dominant-baseline:auto;baseline-shift:baseline;text-anchor:start;white-space:normal;shape-padding:0;clip-rule:nonzero;display:inline;overflow:visible;visibility:visible;opacity:1;isolation:auto;mix-blend-mode:normal;color-interpolation:sRGB;color-interpolation-filters:linearRGB;solid-color:#015d7f;solid-opacity:1;vector-effect:none;fill:#015d7f;fill-opacity:1;fill-rule:nonzero;stroke:none;stroke-width:1.99999988;stroke-linecap:round;stroke-linejoin:round;stroke-miterlimit:4;stroke-dasharray:none;stroke-dashoffset:0;stroke-opacity:1;paint-order:stroke fill markers;color-rendering:auto;image-rendering:auto;shape-rendering:auto;text-rendering:auto;enable-background:accumulate" transform="matrix(0.26458333,0,0,0.26458333,0,288.53332)"/> </g> </g>
</svg>