<!DOCTYPE svg PUBLIC "-//W3C//DTD SVG 1.1//EN" "http://www.w3.org/Graphics/SVG/1.1/DTD/svg11.dtd">
<!-- Uploaded to: SVG Repo, www.svgrepo.com, Transformed by: SVG Repo Mixer Tools -->
<svg fill="#000000" width="64px" height="64px" viewBox="-2.4 -2.4 28.80 28.80" id="email" data-name="Flat Line" xmlns="http://www.w3.org/2000/svg" class="icon flat-line">
<g id="SVGRepo_bgCarrier" stroke-width="0">
<path transform="translate(-2.4, -2.4), scale(0.8999999999999999)" d="M16,29.79698422419674C18.006177588014666,29.49477301004253,19.93366219664767,28.801212453162147,21.62554396744703,27.681562415762187C23.213394548292577,26.630757925215963,24.080376467929735,24.857674897276617,25.454837509171583,23.539981309771527C27.04208623384151,22.018288512729068,29.701695387240385,21.373208738865227,30.385508567475185,19.283398456309804C31.057648488650386,17.2292629713728,29.321537789449504,15.175860320819154,28.88426963873312,13.05924953267603C28.437612532971716,10.897191200491287,29.566257958405107,7.896284917180379,27.768367249021573,6.615040288310077C25.72563441404862,5.159311939881427,22.684072602410033,7.884065283582482,20.346315857717393,6.974782125188186C18.2769519458209,6.169891814017761,18.20984220185558,2.2538016231809888,16,2.0376700526651206C13.897315669748519,1.8320189585667468,13.003236516511443,4.943296196872057,11.224024591119205,6.082584873955714C9.691131053792457,7.064147680121186,7.82530736578433,7.279411095667085,6.2891467452013305,8.25585294595598C4.3445777585155465,9.491894616294628,1.7907123182763875,10.411323934530953,1.0058041615799045,12.577672646152667C0.2382967348234275,14.69599529438696,0.9658343293756757,17.340462913721467,2.35489208187046,19.11440683966243C3.756662218384575,20.904585552367884,7.132049410194847,20.17118665113815,8.419335820147836,22.045377953486152C9.860485096108874,24.143581909892358,7.714673746781393,27.689133387944505,9.49440825158232,29.509000462953743C11.031352781366337,31.080602709426092,13.826313723620254,30.12442899912574,16,29.79698422419674" fill="#ffd15c" strokewidth="0"/>
</g>
<g id="SVGRepo_tracerCarrier" stroke-linecap="round" stroke-linejoin="round"/>
<g id="SVGRepo_iconCarrier">
<path id="secondary" d="M20.61,5.23l-8,6.28a1,1,0,0,1-1.24,0l-8-6.28A1,1,0,0,0,3,6V18a1,1,0,0,0,1,1H20a1,1,0,0,0,1-1V6A1,1,0,0,0,20.61,5.23Z" style="fill: #2ca9bc; stroke-width: 2;"/>
<path id="primary" d="M20,19H4a1,1,0,0,1-1-1V6A1,1,0,0,1,4,5H20a1,1,0,0,1,1,1V18A1,1,0,0,1,20,19ZM20,5H4a1,1,0,0,0-.62.22l8,6.29a1,1,0,0,0,1.24,0l8-6.29A1,1,0,0,0,20,5Z" style="fill: none; stroke: #015d7f; stroke-linecap: round; stroke-linejoin: round; stroke-width: 2;"/>
</g>
</svg>