<!DOCTYPE svg PUBLIC "-//W3C//DTD SVG 1.1//EN" "http://www.w3.org/Graphics/SVG/1.1/DTD/svg11.dtd">
<!-- Uploaded to: SVG Repo, www.svgrepo.com, Transformed by: SVG Repo Mixer Tools -->
<svg fill="#000000" width="64px" height="64px" viewBox="-2.4 -2.4 28.80 28.80" id="phone-out" data-name="Flat Line" xmlns="http://www.w3.org/2000/svg" class="icon flat-line">
<g id="SVGRepo_bgCarrier" stroke-width="0">
<path transform="translate(-2.4, -2.4), scale(0.8999999999999999)" d="M16,26.39245711432563C17.344214398907724,25.908594893654097,18.633944496054283,25.40983405938417,19.99184805913704,24.965837536659965C21.488487844467972,24.47647814581408,22.98505567508976,24.15552291901934,24.46721481216062,23.623914460808C26.769263771021453,22.798234770187488,29.887584063792026,22.999224670729507,31.21025735925361,20.942112200793012C32.396420197335786,19.097310182058248,30.93029108925954,16.604790972630244,30.338172480699896,14.492997346308673C29.802132575751575,12.581208663501448,28.770292304436982,10.914291631966663,27.898423461297917,9.130442011687492C26.97468425453363,7.240465272421654,26.624709970660724,4.946753426657847,25.01212685149614,3.595871536607916C23.393472276880317,2.2399035092185464,21.0949181950454,2.1846398280798818,19.03788883690641,1.7078567086416392C16.953156371500512,1.2246524976187816,14.446267651380893,-0.5613422203507932,12.759786760761404,0.755995233547365C10.641860164417551,2.4103418943897257,11.868309923631976,6.097760675544138,10.47545309322366,8.396113518718098C9.714628409031446,9.651550213929257,7.639353343345885,9.490524525698033,6.755941071236185,10.662940089073441C5.862917775767794,11.848110867337116,5.778971055287513,13.434529757201428,5.571811706964928,14.90395324425406C5.36008581650957,16.405768145543334,5.059827270260212,17.959969654043483,5.523629226649781,19.40397920930025C5.987748000012065,20.848975148356317,7.450563110815878,21.708773860498237,8.184191740491833,23.037385366317608C9.132997117452934,24.755684911375727,8.680768371778319,27.613843648960692,10.484458501123438,28.388109034471512C12.30092734373052,29.167859905093735,14.14006945382204,27.061956061145246,16,26.39245711432563" fill="#ffd15c" strokewidth="0"/>
</g>
<g id="SVGRepo_tracerCarrier" stroke-linecap="round" stroke-linejoin="round"/>
<g id="SVGRepo_iconCarrier">
<path id="secondary" d="M21,15v3.93a2,2,0,0,1-2.29,2A18,18,0,0,1,3.14,5.29,2,2,0,0,1,5.13,3H9a1,1,0,0,1,1,.89,10.74,10.74,0,0,0,1,3.78,1,1,0,0,1-.42,1.26l-.86.49a1,1,0,0,0-.33,1.46,14.08,14.08,0,0,0,3.69,3.69,1,1,0,0,0,1.46-.33l.49-.86A1,1,0,0,1,16.33,13a10.74,10.74,0,0,0,3.78,1A1,1,0,0,1,21,15Z" style="fill: #2ca9bc; stroke-width: 2;"/>
<path id="primary" d="M21,9a6,6,0,0,0-6-6" style="fill: none; stroke: #015d7f; stroke-linecap: round; stroke-linejoin: round; stroke-width: 2;"/>
<path id="primary-2" data-name="primary" d="M15,7a2,2,0,0,1,2,2" style="fill: none; stroke: #015d7f; stroke-linecap: round; stroke-linejoin: round; stroke-width: 2;"/>
<path id="primary-3" data-name="primary" d="M21,15v3.93a2,2,0,0,1-2.29,2A18,18,0,0,1,3.14,5.29,2,2,0,0,1,5.13,3H9a1,1,0,0,1,1,.89,10.74,10.74,0,0,0,1,3.78,1,1,0,0,1-.42,1.26l-.86.49a1,1,0,0,0-.33,1.46,14.08,14.08,0,0,0,3.69,3.69,1,1,0,0,0,1.46-.33l.49-.86A1,1,0,0,1,16.33,13a10.74,10.74,0,0,0,3.78,1A1,1,0,0,1,21,15Z" style="fill: none; stroke: #015d7f; stroke-linecap: round; stroke-linejoin: round; stroke-width: 2;"/>
</g>
</svg>