<!DOCTYPE svg PUBLIC "-//W3C//DTD SVG 1.1//EN" "http://www.w3.org/Graphics/SVG/1.1/DTD/svg11.dtd">
<!-- Uploaded to: SVG Repo, www.svgrepo.com, Transformed by: SVG Repo Mixer Tools -->
<svg width="64px" height="64px" viewBox="-51.2 -51.2 614.40 614.40" xmlns="http://www.w3.org/2000/svg" fill="#000000">
<g id="SVGRepo_bgCarrier" stroke-width="0">
<path transform="translate(-51.2, -51.2), scale(19.2)" d="M16,31.117593675459688C18.594274092988716,30.83807628202389,17.89941343465099,25.932104473904737,20.13530179872018,24.587042666326525C22.064759229688853,23.426323042999382,24.885477414761134,25.79327515696656,26.805600925227882,24.617179188752317C28.561330590862237,23.541776190054197,28.836046363153837,21.040390880392636,29.22617321507169,19.0187877274939C29.609858734882998,17.030562993003024,29.66892353898111,14.948762662737977,29.043030870602262,13.023013317515758C28.43603947534274,11.155419493475291,27.43712737325713,9.205867557312773,25.72453768994709,8.24493997308323C24.007722550575195,7.281641501462878,21.59840177959292,8.895732071796939,19.903288279794623,7.894738370016441C17.96837366477962,6.752137981698181,18.154158989879246,3.1419870211099035,16,2.502433066305361C14.104118135091003,1.9395596896226435,12.42130170532868,4.065981686493927,10.794352934378292,5.190362485232523C9.332269962634829,6.200804884491783,7.568790445170332,7.109462487016226,6.932535457396645,8.768938322639062C6.293305843047117,10.436172558616265,8.08077315597613,12.385986757161769,7.402250742980284,14.037619837642488C6.523765552922827,16.175994595530064,3.4221076989433348,16.830500517259924,2.7163082373478904,19.03191596063553C2.0040514365490423,21.253472091301198,1.7344633710889044,24.48974128747981,3.603581601314513,25.885813790403894C5.717634677575083,27.464831811716124,8.98105643231377,24.50092978417294,11.412078384914107,25.52691739952256C13.661306470072633,26.47618079757653,13.572710925230943,31.379119439883834,16,31.117593675459688" fill="#ffd15c" strokewidth="0"/>
</g>
<g id="SVGRepo_tracerCarrier" stroke-linecap="round" stroke-linejoin="round"/>
<g id="SVGRepo_iconCarrier">
<path fill="#015d7f" d="M196.7 18c-.4 1.79-.9 3.57-1.6 5.3-4.1 10.64-13.7 18.25-25 19.97l-3.1 8.04c7.2 8.9 9 21 4.9 31.62-4.2 10.62-13.7 18.27-25 19.97l-3.1 8c7.1 8.9 8.9 21 4.8 31.7-4.1 10.6-13.7 18.2-25 19.9l-3.1 8.1c7.2 8.9 9 21 4.8 31.6-4.1 10.6-13.6 18.3-24.9 20l-3.2 8c7.2 8.9 9 21 4.9 31.6-4.2 10.6-13.7 18.3-24.98 20l-3.13 8c7.15 8.9 8.99 21 4.84 31.6a31.821 31.821 0 0 1-24.97 20l-3.12 8c7.15 8.9 8.98 21 4.84 31.7-1.23 3.1-2.94 6-5.03 8.6l4.2 9.9c3.36.2 6.71.9 9.92 2.2 10.62 4.1 18.28 13.7 20 24.9l8.03 3.2c8.9-7.2 21-9 31.6-4.9 10.6 4.2 18.3 13.7 20 25l8 3.1c8.9-7.1 21-9 31.6-4.8 10.6 4.1 18.3 13.7 20 25l8 3.1c8.9-7.2 21-9 31.6-4.9 9.9 3.9 17.1 12.3 19.5 22.5h19.3c6-1.8 12.5-1.8 18.5 0h21.1c.3-2.8 1-5.6 2-8.3 4.1-10.6 13.7-18.3 25-20l3.1-8c-7.2-8.9-9-21-4.9-31.6 4.2-10.6 13.7-18.3 25-20l3.1-8c-7.1-8.9-8.9-21-4.8-31.7 4.1-10.6 13.7-18.2 25-19.9l3.1-8.1c-7.2-8.9-9-21-4.8-31.6 4.1-10.6 13.6-18.3 24.9-20l3.2-8c-7.2-8.9-9-21-4.9-31.6 4.2-10.6 13.7-18.3 25-20l3.1-8c-7.1-8.9-9-21-4.8-31.6a31.66 31.66 0 0 1 24.9-20l3.2-8.1c-7.2-8.9-9-20.9-4.9-31.6 1.8-4.4 4.5-8.4 7.8-11.5l-2.9-7.1c-4.7.4-9.5-.3-14-2.1-10.6-4.1-18.3-13.65-20-24.95l-8-3.12c-8.9 7.15-21 8.98-31.6 4.84-10.6-4.14-18.3-13.68-20-24.97l-8-3.13c-8.9 7.16-21 8.99-31.6 4.85-10.6-4.15-18.3-13.68-20-24.98l-8-3.12c-8.9 7.15-21 8.98-31.6 4.84-8.9-3.45-15.7-10.63-18.6-19.46zm22.4 31.83l208.7 81.37-127.9 328-208.7-81.4zM340 118.2l-6.5 16.8 59.6 23.3 6.5-16.8zm-73.2 20.3c-31.8.5-61.3 19.3-73.2 49.9-21.9 58.1 21.6 92.8-44.2 146.3l93.7 36.5c.5-5.3 10.5-33.2 19.1-31.9 0 0 34.7 17 47.6 7.5 5.2-4.1 2.5-19.9 2.5-19.9l11-1.6-1.8-8.5 7.2-2.5-1.8-9.5 24-7.8c2.2.5-5.9-28.5-11.9-34.7 2.9-4.5 5.6-9.3 7.5-14.2 15.9-40.8-5.3-87.3-47.7-103.8-10.5-4.1-21.4-6-32-5.8zM127.3 351.3l-6.5 16.7 44.7 17.5 6.5-16.8z"/>
</g>
</svg>